<svg width="199" height="46" viewBox="0 0 199 46" fill="none" xmlns="http://www.w3.org/2000/svg">
<path d="M31.2815 35.32C29.5962 35.32 28.2735 35.1387 27.3135 34.776C26.3535 34.4133 25.6709 33.7947 25.2655 32.92C24.8815 32.024 24.6895 30.7973 24.6895 29.24V18.36H28.5935V29.016C28.5935 29.7627 28.6682 30.3493 28.8175 30.776C28.9882 31.1813 29.2762 31.4693 29.6815 31.64C30.0869 31.8107 30.6309 31.896 31.3135 31.896C31.7189 31.896 32.0815 31.8747 32.4015 31.832C32.7215 31.768 33.0629 31.6613 33.4255 31.512C33.7882 31.3413 34.2362 31.1067 34.7695 30.808L33.3295 33.272V18.36H37.2335V34.296C36.4015 34.6373 35.4949 34.8933 34.5135 35.064C33.5535 35.2347 32.4762 35.32 31.2815 35.32ZM50.6735 35V21.752H45.3935V18.36H54.6415V35H50.6735ZM52.1775 16.152C51.3242 16.152 50.6309 15.9173 50.0975 15.448C49.5855 14.9573 49.3295 14.296 49.3295 13.464C49.3295 12.6107 49.5855 11.9493 50.0975 11.48C50.6309 11.0107 51.3242 10.776 52.1775 10.776C53.0522 10.776 53.7455 11.0107 54.2575 11.48C54.7695 11.9493 55.0255 12.6107 55.0255 13.464C55.0255 14.296 54.7695 14.9573 54.2575 15.448C53.7455 15.9173 53.0522 16.152 52.1775 16.152ZM70.4175 35.32C69.4575 35.32 68.5509 35.2453 67.6975 35.096C66.8442 34.968 65.9909 34.7653 65.1375 34.488V31.032C66.0762 31.3307 66.9615 31.5547 67.7935 31.704C68.6255 31.832 69.4469 31.896 70.2575 31.896C71.3242 31.896 72.0922 31.768 72.5615 31.512C73.0309 31.256 73.2655 30.8507 73.2655 30.296C73.2655 29.9973 73.1589 29.7413 72.9455 29.528C72.7322 29.2933 72.4015 29.0693 71.9535 28.856C71.5269 28.6427 70.9509 28.44 70.2255 28.248C68.9029 27.9067 67.8362 27.4907 67.0255 27C66.2149 26.5093 65.6175 25.9227 65.2335 25.24C64.8709 24.536 64.6895 23.7147 64.6895 22.776C64.6895 21.1333 65.2335 19.9387 66.3215 19.192C67.4309 18.424 69.1695 18.04 71.5375 18.04C72.3695 18.04 73.1909 18.0933 74.0015 18.2C74.8122 18.3067 75.7722 18.488 76.8815 18.744V23.992H72.9455V19.512L74.6415 21.688C73.9589 21.6027 73.4042 21.5493 72.9775 21.528C72.5722 21.4853 72.1882 21.464 71.8255 21.464C70.7375 21.464 69.9375 21.592 69.4255 21.848C68.9135 22.0827 68.6575 22.456 68.6575 22.968C68.6575 23.288 68.7749 23.5867 69.0095 23.864C69.2442 24.12 69.5962 24.376 70.0655 24.632C70.5562 24.8667 71.2069 25.1013 72.0175 25.336C73.2975 25.72 74.3109 26.1467 75.0575 26.616C75.8255 27.064 76.3802 27.608 76.7215 28.248C77.0629 28.8667 77.2335 29.624 77.2335 30.52C77.2335 32.184 76.6789 33.4 75.5695 34.168C74.4815 34.936 72.7642 35.32 70.4175 35.32ZM85.3935 38.552C88.1242 38.552 90.0869 38.1787 91.2815 37.432C92.4975 36.7067 93.1055 35.512 93.1055 33.848V20.056L94.0015 22.136C93.3829 21.9013 92.8389 21.7307 92.3695 21.624C91.9002 21.5173 91.4415 21.464 90.9935 21.464C90.2469 21.464 89.6602 21.6027 89.2335 21.88C88.8282 22.1573 88.5295 22.6267 88.3375 23.288C88.1669 23.928 88.0815 24.824 88.0815 25.976C88.0815 27.256 88.1775 28.2693 88.3695 29.016C88.5615 29.7413 88.8709 30.2533 89.2975 30.552C89.7455 30.8507 90.3749 31 91.1855 31C91.6122 31 92.0495 30.9573 92.4975 30.872C92.9669 30.7867 93.5109 30.6587 94.1295 30.488L95.1215 33.944C94.5669 34.072 93.9909 34.1787 93.3935 34.264C92.7962 34.328 92.1562 34.36 91.4735 34.36C89.7242 34.36 88.3055 34.0827 87.2175 33.528C86.1509 32.952 85.3722 32.0453 84.8815 30.808C84.4122 29.5707 84.1775 27.9387 84.1775 25.912C84.1775 23.992 84.4122 22.456 84.8815 21.304C85.3509 20.152 86.1189 19.32 87.1855 18.808C88.2735 18.296 89.7135 18.04 91.5055 18.04C93.6602 18.04 95.5055 18.3813 97.0415 19.064V33.592C97.0415 36.472 96.0922 38.5947 94.1935 39.96C92.2949 41.3467 89.3615 42.04 85.3935 42.04V38.552ZM112.434 35.32C107.186 35.32 104.562 32.6533 104.562 27.32V26.04C104.562 20.7067 107.196 18.04 112.466 18.04C113.916 18.04 115.25 18.2107 116.466 18.552V25.592H112.562V19.096L114.578 22.072C114.172 21.9013 113.735 21.7733 113.266 21.688C112.818 21.5813 112.359 21.528 111.89 21.528C110.674 21.528 109.81 21.8907 109.298 22.616C108.786 23.3413 108.53 24.5787 108.53 26.328V27.032C108.53 28.2907 108.658 29.272 108.914 29.976C109.17 30.68 109.607 31.1707 110.226 31.448C110.866 31.704 111.751 31.832 112.882 31.832C113.5 31.832 114.076 31.8 114.61 31.736C115.143 31.6507 115.762 31.512 116.466 31.32V34.808C115.868 34.9573 115.228 35.0747 114.546 35.16C113.863 35.2667 113.159 35.32 112.434 35.32ZM130.962 35.32C128.636 35.32 126.93 34.68 125.842 33.4C124.754 32.0987 124.21 30.072 124.21 27.32V26.04C124.21 23.288 124.754 21.272 125.842 19.992C126.93 18.6907 128.636 18.04 130.962 18.04C133.287 18.04 134.994 18.6907 136.082 19.992C137.17 21.272 137.714 23.288 137.714 26.04V27.32C137.714 30.072 137.17 32.0987 136.082 33.4C134.994 34.68 133.287 35.32 130.962 35.32ZM130.962 31.832C131.964 31.832 132.679 31.4693 133.106 30.744C133.532 30.0187 133.746 28.7813 133.746 27.032V26.328C133.746 24.5787 133.532 23.3413 133.106 22.616C132.679 21.8907 131.964 21.528 130.962 21.528C129.959 21.528 129.244 21.8907 128.818 22.616C128.391 23.3413 128.178 24.5787 128.178 26.328V27.032C128.178 28.7813 128.391 30.0187 128.818 30.744C129.244 31.4693 129.959 31.832 130.962 31.832ZM151.474 35.32C149.724 35.32 148.316 35.0213 147.25 34.424C146.183 33.8267 145.404 32.8773 144.914 31.576C144.423 30.2533 144.178 28.5147 144.178 26.36C144.178 24.3333 144.37 22.712 144.754 21.496C145.159 20.28 145.81 19.4053 146.706 18.872C147.602 18.3173 148.786 18.04 150.258 18.04C151.132 18.04 151.975 18.136 152.786 18.328C153.618 18.4987 154.386 18.776 155.09 19.16L153.97 22.456C153.266 22.0933 152.658 21.8373 152.146 21.688C151.634 21.5387 151.132 21.464 150.642 21.464C150.002 21.464 149.49 21.624 149.106 21.944C148.743 22.2427 148.476 22.7547 148.306 23.48C148.156 24.184 148.082 25.1653 148.082 26.424C148.082 27.8533 148.167 28.9627 148.338 29.752C148.53 30.5413 148.839 31.1067 149.266 31.448C149.714 31.768 150.332 31.928 151.122 31.928C151.698 31.928 152.22 31.8533 152.69 31.704C153.18 31.5547 153.607 31.3413 153.97 31.064L153.106 32.92V11.64H157.042V34.296C156.338 34.5947 155.506 34.84 154.546 35.032C153.586 35.224 152.562 35.32 151.474 35.32ZM172.146 35.32C169.522 35.32 167.57 34.6693 166.29 33.368C165.01 32.0453 164.37 30.0293 164.37 27.32V26.04C164.37 23.288 164.892 21.272 165.938 19.992C167.004 18.6907 168.679 18.04 170.962 18.04C173.244 18.04 174.908 18.6907 175.954 19.992C177.02 21.272 177.554 23.288 177.554 26.04V28.408H166.29V25.272H174.45L173.714 26.296V26.2C173.714 24.4507 173.5 23.2133 173.074 22.488C172.668 21.7627 171.975 21.4 170.994 21.4C169.991 21.4 169.276 21.7627 168.85 22.488C168.444 23.2133 168.242 24.4507 168.242 26.2V27.16C168.242 28.4613 168.359 29.4533 168.594 30.136C168.828 30.8187 169.244 31.2987 169.842 31.576C170.46 31.832 171.346 31.96 172.498 31.96C173.116 31.96 173.735 31.928 174.354 31.864C174.994 31.7787 175.751 31.64 176.626 31.448V34.808C175.922 34.9573 175.186 35.0747 174.418 35.16C173.65 35.2667 172.892 35.32 172.146 35.32Z" fill="white"/>
<path d="M3.35938 3.92578H8.02734V31.6602H12.1875C12.1094 32.181 11.9596 32.6497 11.7383 33.0664C11.5299 33.4831 11.2695 33.8346 10.957 34.1211C10.6576 34.4076 10.3125 34.6289 9.92188 34.7852C9.54427 34.9284 9.14714 35 8.73047 35H7.08984C6.58203 35 6.10026 34.8698 5.64453 34.6094C5.1888 34.349 4.79167 33.9974 4.45312 33.5547C4.11458 33.099 3.84766 32.5716 3.65234 31.9727C3.45703 31.3737 3.35938 30.7292 3.35938 30.0391V3.92578Z" fill="#5D5FEF"/>
<line x1="23" y1="28" x2="178" y2="28" stroke="#1F2428" stroke-width="2"/>
<path d="M185.281 32.5625C185.281 32.1979 185.349 31.8594 185.484 31.5469C185.62 31.224 185.807 30.9427 186.047 30.7031C186.286 30.4635 186.562 30.276 186.875 30.1406C187.198 29.9948 187.542 29.9219 187.906 29.9219C188.271 29.9219 188.609 29.9948 188.922 30.1406C189.245 30.276 189.526 30.4635 189.766 30.7031C190.005 30.9427 190.193 31.224 190.328 31.5469C190.474 31.8594 190.547 32.1979 190.547 32.5625C190.547 32.9271 190.474 33.2708 190.328 33.5938C190.193 33.9062 190.005 34.1823 189.766 34.4219C189.526 34.6615 189.245 34.849 188.922 34.9844C188.599 35.1198 188.26 35.1875 187.906 35.1875C187.542 35.1875 187.198 35.1198 186.875 34.9844C186.562 34.849 186.286 34.6615 186.047 34.4219C185.807 34.1823 185.62 33.9062 185.484 33.5938C185.349 33.2708 185.281 32.9271 185.281 32.5625Z" fill="#5D5FEF"/>
</svg>
