<svg width="191" height="46" viewBox="0 0 191 46" fill="none" xmlns="http://www.w3.org/2000/svg">
<path d="M29.32 35.32C27.6347 35.32 26.312 35.1387 25.352 34.776C24.392 34.4133 23.7093 33.7947 23.304 32.92C22.92 32.024 22.728 30.7973 22.728 29.24V18.36H26.632V29.016C26.632 29.7627 26.7067 30.3493 26.856 30.776C27.0267 31.1813 27.3147 31.4693 27.72 31.64C28.1253 31.8107 28.6693 31.896 29.352 31.896C29.7573 31.896 30.12 31.8747 30.44 31.832C30.76 31.768 31.1013 31.6613 31.464 31.512C31.8267 31.3413 32.2747 31.1067 32.808 30.808L31.368 33.272V18.36H35.272V34.296C34.44 34.6373 33.5333 34.8933 32.552 35.064C31.592 35.2347 30.5147 35.32 29.32 35.32ZM48.712 35V21.752H43.432V18.36H52.68V35H48.712ZM50.216 16.152C49.3627 16.152 48.6693 15.9173 48.136 15.448C47.624 14.9573 47.368 14.296 47.368 13.464C47.368 12.6107 47.624 11.9493 48.136 11.48C48.6693 11.0107 49.3627 10.776 50.216 10.776C51.0907 10.776 51.784 11.0107 52.296 11.48C52.808 11.9493 53.064 12.6107 53.064 13.464C53.064 14.296 52.808 14.9573 52.296 15.448C51.784 15.9173 51.0907 16.152 50.216 16.152ZM68.456 35.32C67.496 35.32 66.5893 35.2453 65.736 35.096C64.8827 34.968 64.0293 34.7653 63.176 34.488V31.032C64.1147 31.3307 65 31.5547 65.832 31.704C66.664 31.832 67.4853 31.896 68.296 31.896C69.3627 31.896 70.1307 31.768 70.6 31.512C71.0693 31.256 71.304 30.8507 71.304 30.296C71.304 29.9973 71.1973 29.7413 70.984 29.528C70.7707 29.2933 70.44 29.0693 69.992 28.856C69.5653 28.6427 68.9893 28.44 68.264 28.248C66.9413 27.9067 65.8747 27.4907 65.064 27C64.2533 26.5093 63.656 25.9227 63.272 25.24C62.9093 24.536 62.728 23.7147 62.728 22.776C62.728 21.1333 63.272 19.9387 64.36 19.192C65.4693 18.424 67.208 18.04 69.576 18.04C70.408 18.04 71.2293 18.0933 72.04 18.2C72.8507 18.3067 73.8107 18.488 74.92 18.744V23.992H70.984V19.512L72.68 21.688C71.9973 21.6027 71.4427 21.5493 71.016 21.528C70.6107 21.4853 70.2267 21.464 69.864 21.464C68.776 21.464 67.976 21.592 67.464 21.848C66.952 22.0827 66.696 22.456 66.696 22.968C66.696 23.288 66.8133 23.5867 67.048 23.864C67.2827 24.12 67.6347 24.376 68.104 24.632C68.5947 24.8667 69.2453 25.1013 70.056 25.336C71.336 25.72 72.3493 26.1467 73.096 26.616C73.864 27.064 74.4187 27.608 74.76 28.248C75.1013 28.8667 75.272 29.624 75.272 30.52C75.272 32.184 74.7173 33.4 73.608 34.168C72.52 34.936 70.8027 35.32 68.456 35.32ZM83.432 38.552C86.1627 38.552 88.1253 38.1787 89.32 37.432C90.536 36.7067 91.144 35.512 91.144 33.848V20.056L92.04 22.136C91.4213 21.9013 90.8773 21.7307 90.408 21.624C89.9387 21.5173 89.48 21.464 89.032 21.464C88.2853 21.464 87.6987 21.6027 87.272 21.88C86.8667 22.1573 86.568 22.6267 86.376 23.288C86.2053 23.928 86.12 24.824 86.12 25.976C86.12 27.256 86.216 28.2693 86.408 29.016C86.6 29.7413 86.9093 30.2533 87.336 30.552C87.784 30.8507 88.4133 31 89.224 31C89.6507 31 90.088 30.9573 90.536 30.872C91.0053 30.7867 91.5493 30.6587 92.168 30.488L93.16 33.944C92.6053 34.072 92.0293 34.1787 91.432 34.264C90.8347 34.328 90.1947 34.36 89.512 34.36C87.7627 34.36 86.344 34.0827 85.256 33.528C84.1893 32.952 83.4107 32.0453 82.92 30.808C82.4507 29.5707 82.216 27.9387 82.216 25.912C82.216 23.992 82.4507 22.456 82.92 21.304C83.3893 20.152 84.1573 19.32 85.224 18.808C86.312 18.296 87.752 18.04 89.544 18.04C91.6987 18.04 93.544 18.3813 95.08 19.064V33.592C95.08 36.472 94.1307 38.5947 92.232 39.96C90.3333 41.3467 87.4 42.04 83.432 42.04V38.552ZM110.472 35.32C105.224 35.32 102.6 32.6533 102.6 27.32V26.04C102.6 20.7067 105.235 18.04 110.504 18.04C111.955 18.04 113.288 18.2107 114.504 18.552V25.592H110.6V19.096L112.616 22.072C112.211 21.9013 111.773 21.7733 111.304 21.688C110.856 21.5813 110.397 21.528 109.928 21.528C108.712 21.528 107.848 21.8907 107.336 22.616C106.824 23.3413 106.568 24.5787 106.568 26.328V27.032C106.568 28.2907 106.696 29.272 106.952 29.976C107.208 30.68 107.645 31.1707 108.264 31.448C108.904 31.704 109.789 31.832 110.92 31.832C111.539 31.832 112.115 31.8 112.648 31.736C113.181 31.6507 113.8 31.512 114.504 31.32V34.808C113.907 34.9573 113.267 35.0747 112.584 35.16C111.901 35.2667 111.197 35.32 110.472 35.32ZM129 35.32C126.675 35.32 124.968 34.68 123.88 33.4C122.792 32.0987 122.248 30.072 122.248 27.32V26.04C122.248 23.288 122.792 21.272 123.88 19.992C124.968 18.6907 126.675 18.04 129 18.04C131.325 18.04 133.032 18.6907 134.12 19.992C135.208 21.272 135.752 23.288 135.752 26.04V27.32C135.752 30.072 135.208 32.0987 134.12 33.4C133.032 34.68 131.325 35.32 129 35.32ZM129 31.832C130.003 31.832 130.717 31.4693 131.144 30.744C131.571 30.0187 131.784 28.7813 131.784 27.032V26.328C131.784 24.5787 131.571 23.3413 131.144 22.616C130.717 21.8907 130.003 21.528 129 21.528C127.997 21.528 127.283 21.8907 126.856 22.616C126.429 23.3413 126.216 24.5787 126.216 26.328V27.032C126.216 28.7813 126.429 30.0187 126.856 30.744C127.283 31.4693 127.997 31.832 129 31.832ZM149.512 35.32C147.763 35.32 146.355 35.0213 145.288 34.424C144.221 33.8267 143.443 32.8773 142.952 31.576C142.461 30.2533 142.216 28.5147 142.216 26.36C142.216 24.3333 142.408 22.712 142.792 21.496C143.197 20.28 143.848 19.4053 144.744 18.872C145.64 18.3173 146.824 18.04 148.296 18.04C149.171 18.04 150.013 18.136 150.824 18.328C151.656 18.4987 152.424 18.776 153.128 19.16L152.008 22.456C151.304 22.0933 150.696 21.8373 150.184 21.688C149.672 21.5387 149.171 21.464 148.68 21.464C148.04 21.464 147.528 21.624 147.144 21.944C146.781 22.2427 146.515 22.7547 146.344 23.48C146.195 24.184 146.12 25.1653 146.12 26.424C146.12 27.8533 146.205 28.9627 146.376 29.752C146.568 30.5413 146.877 31.1067 147.304 31.448C147.752 31.768 148.371 31.928 149.16 31.928C149.736 31.928 150.259 31.8533 150.728 31.704C151.219 31.5547 151.645 31.3413 152.008 31.064L151.144 32.92V11.64H155.08V34.296C154.376 34.5947 153.544 34.84 152.584 35.032C151.624 35.224 150.6 35.32 149.512 35.32ZM170.184 35.32C167.56 35.32 165.608 34.6693 164.328 33.368C163.048 32.0453 162.408 30.0293 162.408 27.32V26.04C162.408 23.288 162.931 21.272 163.976 19.992C165.043 18.6907 166.717 18.04 169 18.04C171.283 18.04 172.947 18.6907 173.992 19.992C175.059 21.272 175.592 23.288 175.592 26.04V28.408H164.328V25.272H172.488L171.752 26.296V26.2C171.752 24.4507 171.539 23.2133 171.112 22.488C170.707 21.7627 170.013 21.4 169.032 21.4C168.029 21.4 167.315 21.7627 166.888 22.488C166.483 23.2133 166.28 24.4507 166.28 26.2V27.16C166.28 28.4613 166.397 29.4533 166.632 30.136C166.867 30.8187 167.283 31.2987 167.88 31.576C168.499 31.832 169.384 31.96 170.536 31.96C171.155 31.96 171.773 31.928 172.392 31.864C173.032 31.7787 173.789 31.64 174.664 31.448V34.808C173.96 34.9573 173.224 35.0747 172.456 35.16C171.688 35.2667 170.931 35.32 170.184 35.32Z" fill="#0C0C0C"/>
<path d="M3.35938 3.92578H8.02734V31.6602H12.1875C12.1094 32.181 11.9596 32.6497 11.7383 33.0664C11.5299 33.4831 11.2695 33.8346 10.957 34.1211C10.6576 34.4076 10.3125 34.6289 9.92188 34.7852C9.54427 34.9284 9.14714 35 8.73047 35H7.08984C6.58203 35 6.10026 34.8698 5.64453 34.6094C5.1888 34.349 4.79167 33.9974 4.45312 33.5547C4.11458 33.099 3.84766 32.5716 3.65234 31.9727C3.45703 31.3737 3.35938 30.7292 3.35938 30.0391V3.92578Z" fill="#EA5D62"/>
<line x1="23" y1="23" x2="176" y2="23" stroke="white" stroke-width="2"/>
<path d="M185.281 32.5625C185.281 32.1979 185.349 31.8594 185.484 31.5469C185.62 31.224 185.807 30.9427 186.047 30.7031C186.286 30.4635 186.562 30.276 186.875 30.1406C187.198 29.9948 187.542 29.9219 187.906 29.9219C188.271 29.9219 188.609 29.9948 188.922 30.1406C189.245 30.276 189.526 30.4635 189.766 30.7031C190.005 30.9427 190.193 31.224 190.328 31.5469C190.474 31.8594 190.547 32.1979 190.547 32.5625C190.547 32.9271 190.474 33.2708 190.328 33.5938C190.193 33.9062 190.005 34.1823 189.766 34.4219C189.526 34.6615 189.245 34.849 188.922 34.9844C188.599 35.1198 188.26 35.1875 187.906 35.1875C187.542 35.1875 187.198 35.1198 186.875 34.9844C186.562 34.849 186.286 34.6615 186.047 34.4219C185.807 34.1823 185.62 33.9062 185.484 33.5938C185.349 33.2708 185.281 32.9271 185.281 32.5625Z" fill="#EA5D62"/>
</svg>
