<svg width="66" height="42" viewBox="0 0 66 42" fill="none" xmlns="http://www.w3.org/2000/svg">
<path d="M0 28.9655C0 31.3651 2.01299 33.3103 4.49614 33.3103C6.97929 33.3103 8.99229 31.3651 8.99229 28.9655C8.99229 26.5659 6.97929 24.6207 4.49614 24.6207C2.01299 24.6207 0 26.5659 0 28.9655Z" fill="#878787"/>
<path d="M0.169662 29.2211C0.169662 31.6207 2.10669 33.5659 4.49614 33.5659C6.88559 33.5659 8.82262 31.6207 8.82262 29.2211C8.82262 26.8215 6.88559 24.8763 4.49614 24.8763C2.10669 24.8763 0.169662 26.8215 0.169662 29.2211Z" fill="black"/>
<path d="M22.608 16.9107L20.572 17.6349L25.7892 31.3509L27.401 30.8824L22.608 16.9107Z" fill="#3D3D3D"/>
<path d="M44.1979 28.1136L43.6889 26.8783H38.8959L40.5077 31.2657H42.7558L44.7069 30.5416L44.1979 28.1136Z" fill="#3D3D3D"/>
<path d="M61.3342 27.9006L3.30848 28.8803L3.47815 29.5619L62.2249 28.9229L61.3342 27.9006Z" fill="#242424"/>
<path d="M62.2249 28.9229L3.56298 29.4767V31.0953L62.2249 30.2434V28.9229Z" fill="#3D3D3D"/>
<path d="M22.1838 16.3996L20.4447 17.0385L20.572 17.6349L22.608 16.9107L22.1838 16.3996Z" fill="#3D3D3D"/>
<path d="M26.0861 16.6552L22.6504 16.9533L30.2429 31.2657L35.4602 31.0953L26.0861 16.6552Z" fill="#242424"/>
<path d="M24.3046 13.929L20.9113 14.2698L22.608 16.9533L26.1285 16.6552L24.3046 13.929Z" fill="#3D3D3D"/>
<path d="M56.4563 26.6653L55.3111 27.1339L57.9409 32.501L59.2982 31.6491L56.4563 26.6653Z" fill="#3D3D3D"/>
<path d="M24.3895 19.7647L10.901 28.7099L12.0463 29.0507L25.0257 20.9574L24.3895 19.7647Z" fill="#242424"/>
<path d="M3.43573 33.0974L2.54499 28.4118V27.4746H6.4473L7.84704 32.8418L3.43573 33.0974Z" fill="#3D3D3D"/>
<path d="M61.7161 31.0101C63.4127 31.0101 64.77 32.3164 65.1942 32.9696C65.4428 33.3529 66.0004 34.1197 65.958 35.3124L57.644 38.4219C56.838 37.6552 56.2442 34.5882 57.1351 33.2677C58.183 31.7145 59.5952 31.0101 61.7161 31.0101Z" fill="#878787"/>
<path d="M56.838 35.9087C56.838 38.3789 58.889 40.3813 61.419 40.3813C63.949 40.3813 66 38.3789 66 35.9087C66 33.4386 63.949 31.4361 61.419 31.4361C58.889 31.4361 56.838 33.4386 56.838 35.9087Z" fill="black"/>
<path d="M60.8252 36.0791C60.8252 36.479 61.148 36.8032 61.5463 36.8032C61.9445 36.8032 62.2674 36.479 62.2674 36.0791C62.2674 35.6792 61.9445 35.355 61.5463 35.355C61.148 35.355 60.8252 35.6792 60.8252 36.0791Z" fill="#878787"/>
<path d="M1.35732 37.0588C1.35732 39.7878 3.69316 42 6.57455 42C9.45594 42 11.7918 39.7878 11.7918 37.0588C11.7918 34.3299 9.45594 32.1176 6.57455 32.1176C3.69316 32.1176 1.35732 34.3299 1.35732 37.0588Z" fill="#878787"/>
<path d="M1.95116 37.1866C1.95116 39.6568 4.00213 41.6592 6.53213 41.6592C9.06214 41.6592 11.1131 39.6568 11.1131 37.1866C11.1131 34.7165 9.06214 32.714 6.53213 32.714C4.00213 32.714 1.95116 34.7165 1.95116 37.1866Z" fill="black"/>
<path d="M5.85347 37.4848C5.85347 37.8612 6.15732 38.1663 6.53213 38.1663C6.90695 38.1663 7.2108 37.8612 7.2108 37.4848C7.2108 37.1084 6.90695 36.8032 6.53213 36.8032C6.15732 36.8032 5.85347 37.1084 5.85347 37.4848Z" fill="#878787"/>
<path d="M34.6966 19.0832C33.5768 15.2325 31.2326 12.2535 30.2005 11.2454C29.6208 10.8763 28.1221 10.2487 26.7648 10.6917C26.6375 10.8479 26.1115 11.2028 25.0257 11.3732C24.7429 12.0406 24.2028 13.503 24.3046 14.0142L33.6786 28.3266C35.5026 28.3266 39.1588 28.2755 39.1928 28.071C39.2267 27.8665 39.6311 27.4178 39.829 27.2191L45.937 27.3469C45.9653 25.714 45.9455 22.2523 45.6401 21.4686L42.7134 20.574L38.5141 21.4686C37.482 21.1278 35.2735 20.1736 34.6966 19.0832Z" fill="#0C0C0C"/>
<path d="M48.0578 27.645C47.3792 27.7132 46.2056 27.503 45.6825 27.2191V23.641L49.3727 24.3225C50.5887 24.7343 53.0375 25.6174 53.1054 25.856C53.1732 26.0945 53.1336 27.1481 53.1054 27.645C52.9781 27.8637 52.6388 28.2891 52.2995 28.2414L48.0578 27.645Z" fill="#3D3D3D" fill-opacity="0.94"/>
<path d="M55.4383 23.854C55.099 23.7858 53.8547 24.2231 53.275 24.4503L53.0206 25.5152V27.9006C53.8265 28.1846 55.5995 28.6588 56.2442 28.284C56.889 27.9091 57.5308 25.7424 57.7712 24.7059C58.1105 24.5355 58.0822 23.1298 58.0257 22.4483C57.7203 21.903 56.9087 22.2211 56.5411 22.4483L55.4383 23.854Z" fill="#242424" fill-opacity="0.94"/>
<path d="M45.937 23.8966C45.6656 23.6921 45.2584 23.8114 45.0887 23.8966L44.1555 21.213L44.4949 19.9777C46.3272 19.8755 47.2095 20.2759 47.4216 20.4888C48.1681 21.1022 48.4961 22.3915 48.5668 22.9594C49.9581 24.1521 52.2571 27.9006 53.063 30.4564L52.8933 32.501C52.455 32.3164 51.9602 32.4669 51.7905 32.501C51.6208 32.5351 50.7018 30.9817 50.4756 30.4564L47.8882 28.1136C46.938 27.7047 46.1915 25.1318 45.937 23.8966Z" fill="#3D3D3D"/>
<path d="M54.1234 35.0568C54.3948 35.0568 56.3007 32.359 57.2198 31.0101C58.6449 30.4308 58.6336 28.0426 58.4498 26.9209C57.33 26.4438 56.9087 26.7221 56.838 26.9209L56.1169 27.858C54.7257 28.744 52.9357 28.2272 52.2146 27.858C52.7236 28.1647 52.4267 29.0649 52.2146 29.4767C52.2005 29.7181 52.2655 30.2008 52.6388 30.2008C53.012 30.2008 52.8509 31.5071 52.7236 32.1602C52.7236 32.1602 52.2146 32.288 51.9177 32.2454C51.4766 31.8365 51.1683 32.1886 51.0694 32.4158C51.3408 32.8929 52.2288 34.0913 52.6388 34.6308C52.8424 35.1761 53.7133 35.142 54.1234 35.0568Z" fill="#242424"/>
<path d="M31.2006 10.4972C30.378 10.7859 30.5767 10.8924 30.2853 10.4972V11.5862L25.5771 11.4158C25.8684 11.2784 25.5771 10.4972 25.5771 10.4972C25.5771 10.4972 25.3339 11.0581 24.7712 10.4972C24.4225 10.1496 23.489 8.28069 23.489 7.9714C22.7487 6.28065 24.7571 3.58989 25.8539 2.45585C28.8563 1.01253 31.869 3.05724 33 4.26001C32.4653 5.20847 32.7772 7.12947 33 7.9714L32.0746 8.28069L32.5373 8.74461L32.0746 9.31163V9.67246L31.2006 10.4972Z" fill="#3D3D3D" fill-opacity="0.94"/>
<path d="M27.7828 5.92089L33.6787 5.66531L31.6003 2.47059C30.9555 1.20974 28.5321 0.298174 27.401 0C22.4807 0.0851927 21.9293 2.78206 21.9293 4.34483C21.9293 5.66531 22.4949 6.43205 23.4563 6.73022C23.9653 6.93469 24.4602 5.15416 24.5591 4.643H25.3226C26.0692 5.46085 27.2738 5.8357 27.7828 5.92089Z" fill="#242424"/>
<path d="M28.2439 3.93931C28.3579 3.93931 28.4597 3.91069 28.5493 3.85344C28.6389 3.79482 28.7095 3.71031 28.7611 3.5999C28.8126 3.48813 28.8384 3.35591 28.8384 3.20325C28.8384 3.05058 28.8126 2.91904 28.7611 2.80863C28.7095 2.69686 28.6389 2.61235 28.5493 2.5551C28.4597 2.49649 28.3579 2.46718 28.2439 2.46718C28.1299 2.46718 28.0281 2.49649 27.9385 2.5551C27.8476 2.61235 27.7763 2.69686 27.7248 2.80863C27.6732 2.91904 27.6474 3.05058 27.6474 3.20325C27.6474 3.35591 27.6732 3.48813 27.7248 3.5999C27.7763 3.71031 27.8476 3.79482 27.9385 3.85344C28.0281 3.91069 28.1299 3.93931 28.2439 3.93931ZM28.2439 3.70827C28.1421 3.70827 28.062 3.66601 28.0037 3.5815C27.944 3.49699 27.9141 3.3709 27.9141 3.20325C27.9141 3.03559 27.944 2.9095 28.0037 2.82499C28.062 2.74048 28.1421 2.69822 28.2439 2.69822C28.3444 2.69822 28.4245 2.74048 28.4842 2.82499C28.5425 2.9095 28.5717 3.03559 28.5717 3.20325C28.5717 3.3709 28.5425 3.49699 28.4842 3.5815C28.4245 3.66601 28.3444 3.70827 28.2439 3.70827Z" fill="#A2A2A2"/>
<path d="M26.9857 2.48763V3.91886H27.2504V2.71049H27.5518V2.48763H26.9857Z" fill="#A2A2A2"/>
<path d="M53.6992 24.4929L48.1851 22.7465L44.3676 20.4888C44.4666 19.9209 44.4355 18.9213 43.5193 19.4665C43.3638 19.2394 42.9594 18.8531 42.5861 19.1258C42.4108 19.2529 42.1509 19.4758 42.106 19.6244C41.7787 19.3779 40.9647 18.8729 40.4653 18.572L40.0411 19.1258L41.5681 20.0629L39.108 20.4888C38.6272 20.858 37.7846 21.6389 38.2596 21.8093L42.5861 20.7444L48.6941 23.4706L53.4447 25.1744L53.6992 24.4929Z" fill="#7A7A7A"/>
<path d="M44.0707 20.4037C43.935 20.0288 43.7031 20.2475 43.6041 20.4037C43.4005 20.5687 43.6889 20.8416 43.8586 20.9574C44.0622 20.9574 44.0848 20.5882 44.0707 20.4037Z" fill="#999999"/>
<path d="M42.4165 20.2333C42.4165 20.492 42.5405 20.5314 42.7982 20.5314C43.0559 20.5314 43.2648 20.492 43.2648 20.2333C43.2648 19.9745 43.0559 19.7647 42.7982 19.7647C42.5405 19.7647 42.4165 19.9745 42.4165 20.2333Z" fill="#999999"/>
<path d="M36.1388 19.1684H33.8059C33.9416 19.6795 32.59 21.3124 31.8972 22.0649C32.8473 22.4057 35.347 21.497 36.4781 21C36.8175 21.3408 38.7262 21.213 38.7262 21C38.7262 20.8296 39.1221 20.929 39.3201 21L39.7866 20.8296V20.4037C40.0242 20.5059 40.1401 20.1339 40.1684 19.9351C40.4738 20.0032 40.5784 19.5943 40.5925 19.3813C40.864 19.3813 40.7057 19.0974 40.5925 18.9554C40.6774 18.9554 40.864 18.9128 40.9319 18.7424C40.9998 18.572 40.1967 18.217 39.7866 18.0609C39.617 17.8223 39.4049 18.0467 39.3201 18.1886L38.7262 18.359C38.4887 18.2227 37.8072 18.4158 37.4962 18.5294C37.1908 18.4953 36.464 18.9412 36.1388 19.1684Z" fill="#3D3D3D"/>
</svg>
