<svg width="30" height="28" viewBox="0 0 30 28" fill="none" xmlns="http://www.w3.org/2000/svg">
<path d="M13.8939 17.05C13.9672 17.05 14.0306 17.0767 14.0839 17.13C14.1372 17.1833 14.1639 17.2467 14.1639 17.32V18.73C14.1639 18.8033 14.1372 18.8667 14.0839 18.92C14.0306 18.9733 13.9672 19 13.8939 19H7.57391C7.50057 19 7.43724 18.9733 7.38391 18.92C7.33057 18.8667 7.30391 18.8033 7.30391 18.73V12.27C7.30391 12.1967 7.33057 12.1333 7.38391 12.08C7.43724 12.0267 7.50057 12 7.57391 12H13.7939C13.8672 12 13.9306 12.0267 13.9839 12.08C14.0372 12.1333 14.0639 12.1967 14.0639 12.27V13.68C14.0639 13.7533 14.0372 13.8167 13.9839 13.87C13.9306 13.9233 13.8672 13.95 13.7939 13.95H9.90391V14.58H13.2439C13.3172 14.58 13.3806 14.6067 13.4339 14.66C13.4872 14.7133 13.5139 14.7767 13.5139 14.85V16.15C13.5139 16.2233 13.4872 16.2867 13.4339 16.34C13.3806 16.3933 13.3172 16.42 13.2439 16.42H9.90391V17.05H13.8939ZM22.48 12C22.5533 12 22.6167 12.0267 22.67 12.08C22.7233 12.1333 22.75 12.1967 22.75 12.27V18.73C22.75 18.8033 22.7233 18.8667 22.67 18.92C22.6167 18.9733 22.5533 19 22.48 19H20.87C20.71 19 20.5767 18.93 20.47 18.79L18.29 16.01V18.73C18.29 18.8033 18.2633 18.8667 18.21 18.92C18.1567 18.9733 18.0933 19 18.02 19H16.16C16.0867 19 16.0233 18.9733 15.97 18.92C15.9167 18.8667 15.89 18.8033 15.89 18.73V12.27C15.89 12.1967 15.9167 12.1333 15.97 12.08C16.0233 12.0267 16.0867 12 16.16 12H17.78C17.94 12 18.07 12.0667 18.17 12.2L20.35 15.21V12.27C20.35 12.1967 20.3767 12.1333 20.43 12.08C20.4833 12.0267 20.5467 12 20.62 12H22.48Z" fill="black"/>
<path d="M13.618 3.255C14.0893 3.255 14.4627 3.39267 14.738 3.668C15.018 3.93867 15.158 4.33767 15.158 4.865V7H14.486V4.942C14.486 4.58267 14.3997 4.312 14.227 4.13C14.0543 3.948 13.807 3.857 13.485 3.857C13.121 3.857 12.834 3.96433 12.624 4.179C12.414 4.389 12.309 4.69233 12.309 5.089V7H11.637V1.806H12.309V3.815C12.449 3.63767 12.631 3.5 12.855 3.402C13.0837 3.304 13.338 3.255 13.618 3.255ZM16.5416 3.29H17.2136V7H16.5416V3.29ZM16.8776 2.576C16.747 2.576 16.6373 2.534 16.5486 2.45C16.4646 2.366 16.4226 2.26333 16.4226 2.142C16.4226 2.02067 16.4646 1.918 16.5486 1.834C16.6373 1.74533 16.747 1.701 16.8776 1.701C17.0083 1.701 17.1156 1.743 17.1996 1.827C17.2883 1.90633 17.3326 2.00667 17.3326 2.128C17.3326 2.254 17.2883 2.36133 17.1996 2.45C17.1156 2.534 17.0083 2.576 16.8776 2.576Z" fill="black"/>
<circle cx="15" cy="26" r="2" fill="#5D5FEF"/>
<path d="M4 5H1V25H3.6H4" stroke="black"/>
<path d="M26 25H29L29 5H26.4H26" stroke="black"/>
</svg>
