<svg width="21" height="24" viewBox="0 0 21 24" fill="none" xmlns="http://www.w3.org/2000/svg">
<path d="M6.55806 16.7609C6.80214 17.005 7.19786 17.005 7.44194 16.7609L11.4194 12.7835C11.6635 12.5394 11.6635 12.1437 11.4194 11.8996C11.1753 11.6555 10.7796 11.6555 10.5355 11.8996L7 15.4351L3.46447 11.8996C3.22039 11.6555 2.82466 11.6555 2.58058 11.8996C2.33651 12.1437 2.33651 12.5394 2.58058 12.7835L6.55806 16.7609ZM6.375 2.73196e-08L6.375 16.319L7.625 16.319L7.625 -2.73196e-08L6.375 2.73196e-08Z" fill="#5D5FEF"/>
<path fill-rule="evenodd" clip-rule="evenodd" d="M0.0376951 23.0305L0.00958324 23.0305L0.00767499 21.7805L0.0108445 21.7805V11.6072H1.26084V21.7786L18.9982 21.7515L19.0001 23.0015L1.26084 23.0286V23.0305H0.0376951Z" fill="#5D5FEF"/>
<line x1="19.625" y1="11.6072" x2="19.625" y2="23.0305" stroke="#5D5FEF" stroke-width="1.25"/>
<path d="M11.5958 19.4922C11.726 19.4922 11.8523 19.4714 11.9747 19.4297C12.0997 19.388 12.2104 19.3294 12.3067 19.2539C12.4031 19.181 12.4799 19.0951 12.5372 18.9961C12.5971 18.8945 12.6283 18.7852 12.6309 18.668H13.3145C13.3119 18.8555 13.2624 19.0352 13.1661 19.207C13.0723 19.3763 12.946 19.5247 12.7872 19.6523C12.6283 19.7826 12.446 19.8867 12.2403 19.9648C12.0346 20.0404 11.8197 20.0781 11.5958 20.0781C11.2755 20.0781 10.9955 20.0208 10.7559 19.9062C10.5164 19.7917 10.3171 19.6367 10.1583 19.4414C9.99682 19.2487 9.87573 19.026 9.795 18.7734C9.71427 18.5182 9.67391 18.25 9.67391 17.9688V17.8047C9.67391 17.526 9.71427 17.2591 9.795 17.0039C9.87573 16.7487 9.99682 16.5234 10.1583 16.3281C10.3171 16.1354 10.5164 15.9818 10.7559 15.8672C10.9955 15.7526 11.2755 15.6953 11.5958 15.6953C11.8458 15.6953 12.0749 15.7357 12.2833 15.8164C12.4942 15.8945 12.6765 16.0013 12.8302 16.1367C12.9812 16.2747 13.0997 16.4375 13.1856 16.625C13.2716 16.8125 13.3145 17.013 13.3145 17.2266H12.6309C12.6283 17.099 12.5997 16.9792 12.545 16.8672C12.4929 16.7526 12.4213 16.6523 12.3302 16.5664C12.239 16.4805 12.1296 16.4128 12.002 16.3633C11.877 16.3138 11.7416 16.2891 11.5958 16.2891C11.3718 16.2891 11.183 16.3346 11.0294 16.4258C10.8783 16.5143 10.7559 16.6302 10.6622 16.7734C10.5684 16.9193 10.5007 17.082 10.4591 17.2617C10.42 17.4414 10.4005 17.6224 10.4005 17.8047V17.9688C10.4005 18.1536 10.42 18.3372 10.4591 18.5195C10.5007 18.6992 10.5684 18.8607 10.6622 19.0039C10.7533 19.1497 10.8744 19.2682 11.0255 19.3594C11.1791 19.4479 11.3692 19.4922 11.5958 19.4922ZM16.2011 20L14.4628 15.7734H15.205L16.4159 18.9609L16.4823 19.2227L16.5527 18.9609L17.7362 15.7734H18.4745L16.7519 20H16.2011Z" fill="#383838"/>
</svg>
