<svg width="31" height="22" viewBox="0 0 31 22" fill="none" xmlns="http://www.w3.org/2000/svg">
<path d="M9.05469 14C9.02604 13.9453 9.0026 13.8776 8.98438 13.7969C8.96875 13.7135 8.95703 13.6276 8.94922 13.5391C8.8763 13.612 8.79427 13.681 8.70312 13.7461C8.61458 13.8112 8.51693 13.8685 8.41016 13.918C8.30078 13.9674 8.1849 14.0065 8.0625 14.0352C7.9401 14.0638 7.8099 14.0781 7.67188 14.0781C7.44792 14.0781 7.24479 14.0456 7.0625 13.9805C6.88281 13.9154 6.73047 13.8268 6.60547 13.7148C6.47786 13.6055 6.37891 13.4753 6.30859 13.3242C6.24089 13.1706 6.20703 13.0052 6.20703 12.8281C6.20703 12.5964 6.2526 12.3932 6.34375 12.2188C6.4375 12.0443 6.56901 11.8984 6.73828 11.7812C6.90755 11.6667 7.11068 11.5807 7.34766 11.5234C7.58724 11.4661 7.85417 11.4375 8.14844 11.4375H8.9375V11.1055C8.9375 10.9779 8.91406 10.8633 8.86719 10.7617C8.82031 10.6602 8.75391 10.5729 8.66797 10.5C8.58203 10.4297 8.47656 10.375 8.35156 10.3359C8.22917 10.2969 8.09115 10.2773 7.9375 10.2773C7.79427 10.2773 7.66536 10.2956 7.55078 10.332C7.4388 10.3685 7.34375 10.4167 7.26562 10.4766C7.1875 10.5365 7.1263 10.6081 7.08203 10.6914C7.04036 10.7721 7.01953 10.8568 7.01953 10.9453H6.29297C6.29557 10.7917 6.33464 10.6406 6.41016 10.4922C6.48828 10.3438 6.60026 10.2096 6.74609 10.0898C6.88932 9.97266 7.0638 9.8776 7.26953 9.80469C7.47786 9.73177 7.71354 9.69531 7.97656 9.69531C8.21615 9.69531 8.4388 9.72526 8.64453 9.78516C8.85026 9.84245 9.02865 9.92969 9.17969 10.0469C9.32812 10.1667 9.44531 10.3151 9.53125 10.4922C9.61719 10.6693 9.66016 10.8763 9.66016 11.1133V13.0781C9.66016 13.2188 9.67318 13.3685 9.69922 13.5273C9.72526 13.6836 9.76172 13.8203 9.80859 13.9375V14H9.05469ZM7.77734 13.4492C7.91797 13.4492 8.04948 13.431 8.17188 13.3945C8.29427 13.3581 8.40625 13.3099 8.50781 13.25C8.60677 13.1901 8.69271 13.1224 8.76562 13.0469C8.83854 12.9688 8.89583 12.888 8.9375 12.8047V11.9492H8.26562C8.01562 11.9492 7.79688 11.9714 7.60938 12.0156C7.42448 12.0573 7.27734 12.1224 7.16797 12.2109C7.08984 12.2734 7.02995 12.3477 6.98828 12.4336C6.94922 12.5195 6.92969 12.6172 6.92969 12.7266C6.92969 12.8307 6.94661 12.9271 6.98047 13.0156C7.01693 13.1042 7.07031 13.1797 7.14062 13.2422C7.21094 13.3073 7.29948 13.3581 7.40625 13.3945C7.51302 13.431 7.63672 13.4492 7.77734 13.4492Z" fill="#383838"/>
<path d="M24.7139 15C24.6673 14.9111 24.6292 14.8011 24.5996 14.6699C24.5742 14.5345 24.5552 14.3949 24.5425 14.251C24.424 14.3695 24.2907 14.4816 24.1426 14.5874C23.9987 14.6932 23.84 14.7863 23.6665 14.8667C23.4888 14.9471 23.3005 15.0106 23.1016 15.0571C22.9027 15.1037 22.6911 15.127 22.4668 15.127C22.1029 15.127 21.7728 15.0741 21.4766 14.9683C21.1846 14.8625 20.937 14.7186 20.7339 14.5366C20.5265 14.3589 20.3657 14.1473 20.2515 13.9019C20.1414 13.6522 20.0864 13.3835 20.0864 13.0957C20.0864 12.7191 20.1605 12.389 20.3086 12.1055C20.4609 11.8219 20.6746 11.585 20.9497 11.3945C21.2248 11.2083 21.5549 11.0687 21.9399 10.9756C22.3293 10.8825 22.763 10.8359 23.2412 10.8359H24.5234V10.2964C24.5234 10.089 24.4854 9.90283 24.4092 9.73779C24.333 9.57275 24.2251 9.43099 24.0854 9.3125C23.9458 9.19824 23.7744 9.10938 23.5713 9.0459C23.3724 8.98242 23.1481 8.95068 22.8984 8.95068C22.6657 8.95068 22.4562 8.98031 22.27 9.03955C22.0881 9.0988 21.9336 9.17708 21.8066 9.27441C21.6797 9.37174 21.5802 9.48812 21.5083 9.62354C21.4406 9.75472 21.4067 9.89225 21.4067 10.0361H20.2261C20.2303 9.78646 20.2938 9.54102 20.4165 9.2998C20.5435 9.05859 20.7254 8.84066 20.9624 8.646C21.1951 8.45557 21.4787 8.30111 21.813 8.18262C22.1515 8.06413 22.5345 8.00488 22.9619 8.00488C23.3512 8.00488 23.7131 8.05355 24.0474 8.15088C24.3817 8.24398 24.6715 8.38574 24.917 8.57617C25.1582 8.77083 25.3486 9.01204 25.4883 9.2998C25.6279 9.58757 25.6978 9.92399 25.6978 10.3091V13.502C25.6978 13.7305 25.7189 13.9738 25.7612 14.2319C25.8035 14.4858 25.8628 14.708 25.939 14.8984V15H24.7139ZM22.6382 14.105C22.8667 14.105 23.0804 14.0754 23.2793 14.0161C23.4782 13.9569 23.6602 13.8786 23.8252 13.7812C23.986 13.6839 24.1257 13.5739 24.2441 13.4512C24.3626 13.3242 24.4557 13.193 24.5234 13.0576V11.6675H23.4316C23.0254 11.6675 22.6699 11.7035 22.3652 11.7754C22.0648 11.8431 21.8257 11.9489 21.6479 12.0928C21.521 12.1943 21.4237 12.3149 21.356 12.4546C21.2925 12.5942 21.2607 12.7529 21.2607 12.9307C21.2607 13.0999 21.2882 13.2565 21.3433 13.4004C21.4025 13.5443 21.4893 13.667 21.6035 13.7686C21.7178 13.8743 21.8617 13.9569 22.0352 14.0161C22.2087 14.0754 22.4097 14.105 22.6382 14.105Z" fill="#383838"/>
<path d="M14 1L11 1C5.47715 1 0.999999 5.47715 0.999998 11V11C0.999997 16.5228 5.47715 21 11 21L12.2667 21L14 21" stroke="#383838"/>
<path d="M17 21L20 21C25.5228 21 30 16.5228 30 11V11C30 5.47716 25.5228 1 20 1L18.7333 1L17 1" stroke="#383838"/>
<line x1="13.5" y1="21" x2="13.5" y2="1" stroke="#383838"/>
<line x1="17.5" y1="21" x2="17.5" y2="1" stroke="#383838"/>
</svg>
