<svg width="20" height="23" viewBox="0 0 20 23" fill="none" xmlns="http://www.w3.org/2000/svg">
<path d="M9.17893 16.931C9.51691 17.2689 10.0649 17.2689 10.4029 16.931L15.9105 11.4233C16.2485 11.0853 16.2485 10.5374 15.9105 10.1994C15.5725 9.8614 15.0246 9.8614 14.6866 10.1994L9.79089 15.0951L4.8952 10.1994C4.55722 9.8614 4.00925 9.8614 3.67127 10.1994C3.33329 10.5374 3.33329 11.0853 3.67127 11.4233L9.17893 16.931ZM8.92545 3.78298e-08L8.92545 16.319L10.6563 16.319L10.6563 -3.78298e-08L8.92545 3.78298e-08Z" fill="#383838"/>
<path fill-rule="evenodd" clip-rule="evenodd" d="M0.0107982 19.1746V10.6072H2.86662V19.1653L17.1442 19.1192V10.6072H20.0001V22.0305H17.1442V21.975L2.86662 22.0212V22.0305H0.0107982V22.0304L0.00959455 22.0304L0.000366211 19.1746L0.0107982 19.1746Z" fill="#383838"/>
</svg>
