<svg width="30" height="28" viewBox="0 0 30 28" fill="none" xmlns="http://www.w3.org/2000/svg">
<path d="M11.4933 19.1172C11.048 19.1172 10.6378 19.041 10.2628 18.8887C9.89172 18.7363 9.57336 18.5234 9.30773 18.25C9.04211 17.9766 8.83508 17.6523 8.68664 17.2773C8.5382 16.9023 8.46398 16.4941 8.46398 16.0527V15.8066C8.46398 15.2949 8.54602 14.8379 8.71008 14.4355C8.87414 14.0293 9.09289 13.6855 9.36633 13.4043C9.63586 13.127 9.9425 12.9141 10.2863 12.7656C10.6339 12.6172 10.9894 12.543 11.3527 12.543C11.8097 12.543 12.2081 12.623 12.548 12.7832C12.8917 12.9395 13.1769 13.1562 13.4034 13.4336C13.63 13.7148 13.798 14.0449 13.9073 14.4238C14.0206 14.8027 14.0773 15.2129 14.0773 15.6543V16.1406H9.54797V16.1816C9.57531 16.4902 9.63586 16.7617 9.72961 16.9961C9.82727 17.2305 9.96008 17.4375 10.128 17.6172C10.2999 17.8086 10.507 17.959 10.7491 18.0684C10.9913 18.1777 11.2589 18.2324 11.5519 18.2324C11.9386 18.2324 12.2823 18.1543 12.5831 17.998C12.8839 17.8418 13.1339 17.6348 13.3331 17.377L13.9952 17.8926C13.7843 18.2129 13.4679 18.498 13.046 18.748C12.628 18.9941 12.1105 19.1172 11.4933 19.1172ZM11.3527 13.4336C11.1339 13.4336 10.9269 13.4746 10.7316 13.5566C10.5363 13.6348 10.3605 13.75 10.2042 13.9023C10.048 14.0586 9.91516 14.25 9.80578 14.4766C9.70031 14.6992 9.62609 14.957 9.58313 15.25H12.9933V15.1973C12.9933 15.002 12.9562 14.793 12.882 14.5703C12.8077 14.3438 12.7042 14.1484 12.5714 13.9844C12.4386 13.8203 12.2706 13.6875 12.0675 13.5859C11.8683 13.4844 11.63 13.4336 11.3527 13.4336ZM16.1395 19V12.6602H17.1122L17.1884 13.5977C17.2821 13.4648 17.3837 13.3438 17.493 13.2344C17.6063 13.1211 17.7255 13.0234 17.8505 12.9414C18.038 12.8164 18.2411 12.7207 18.4598 12.6543C18.6825 12.584 18.9169 12.5469 19.163 12.543C19.495 12.543 19.7958 12.5898 20.0653 12.6836C20.3387 12.7773 20.5712 12.9238 20.7626 13.123C20.954 13.3223 21.1005 13.5762 21.202 13.8848C21.3075 14.1895 21.3602 14.5527 21.3602 14.9746V19H20.2762V14.998C20.2762 14.7168 20.245 14.4785 20.1825 14.2832C20.12 14.0879 20.0282 13.9297 19.9071 13.8086C19.7821 13.6875 19.6298 13.5996 19.4501 13.5449C19.2743 13.4902 19.0712 13.4629 18.8407 13.4629C18.6415 13.4629 18.4559 13.4922 18.2841 13.5508C18.1122 13.6055 17.954 13.6816 17.8095 13.7793C17.6923 13.8652 17.5829 13.9648 17.4813 14.0781C17.3837 14.1914 17.2977 14.3164 17.2235 14.4531V19H16.1395Z" fill="#383838"/>
<path d="M13.618 3.255C13.9213 3.255 14.1873 3.31333 14.416 3.43C14.6493 3.54667 14.8313 3.724 14.962 3.962C15.0927 4.2 15.158 4.501 15.158 4.865V7H14.486V4.942C14.486 4.58267 14.3973 4.312 14.22 4.13C14.0473 3.948 13.8023 3.857 13.485 3.857C13.247 3.857 13.0393 3.90367 12.862 3.997C12.6847 4.09033 12.547 4.228 12.449 4.41C12.3557 4.592 12.309 4.81833 12.309 5.089V7H11.637V1.806H12.309V4.291L12.176 4.025C12.2973 3.78233 12.484 3.59333 12.736 3.458C12.988 3.32267 13.282 3.255 13.618 3.255ZM16.5416 7V3.29H17.2136V7H16.5416ZM16.8776 2.576C16.747 2.576 16.6373 2.534 16.5486 2.45C16.4646 2.366 16.4226 2.26333 16.4226 2.142C16.4226 2.016 16.4646 1.911 16.5486 1.827C16.6373 1.743 16.747 1.701 16.8776 1.701C17.0083 1.701 17.1156 1.743 17.1996 1.827C17.2883 1.90633 17.3326 2.00667 17.3326 2.128C17.3326 2.254 17.2906 2.36133 17.2066 2.45C17.1226 2.534 17.013 2.576 16.8776 2.576Z" fill="#383838"/>
<circle cx="15" cy="26" r="2" fill="#5D5FEF"/>
<path d="M4 5H1V25H3.6H4" stroke="#383838"/>
<path d="M26 25H29L29 5H26.4H26" stroke="#383838"/>
</svg>
