<svg width="30" height="28" viewBox="0 0 30 28" fill="none" xmlns="http://www.w3.org/2000/svg">
<path d="M12.9054 17.3184C12.9054 17.1895 12.88 17.0742 12.8292 16.9727C12.7784 16.8672 12.6925 16.7715 12.5714 16.6855C12.4503 16.5996 12.2902 16.5215 12.0909 16.4512C11.8917 16.377 11.6437 16.3105 11.3468 16.252C10.9835 16.1777 10.6515 16.0879 10.3507 15.9824C10.0538 15.877 9.79992 15.75 9.58898 15.6016C9.37414 15.457 9.20813 15.2871 9.09094 15.0918C8.97375 14.8926 8.91516 14.6621 8.91516 14.4004C8.91516 14.1426 8.9757 13.9023 9.0968 13.6797C9.21789 13.4531 9.38781 13.2559 9.60656 13.0879C9.82531 12.9199 10.0851 12.7871 10.3859 12.6895C10.6905 12.5918 11.0245 12.543 11.3878 12.543C11.7784 12.543 12.13 12.5938 12.4425 12.6953C12.755 12.7969 13.0206 12.9375 13.2394 13.1172C13.4581 13.2969 13.6261 13.5078 13.7433 13.75C13.8644 13.9883 13.9249 14.2461 13.9249 14.5234H12.8409C12.8409 14.3867 12.8058 14.2539 12.7355 14.125C12.6652 13.9922 12.5675 13.875 12.4425 13.7734C12.3175 13.6719 12.1652 13.5898 11.9855 13.5273C11.8097 13.4648 11.6105 13.4336 11.3878 13.4336C11.1573 13.4336 10.9542 13.459 10.7784 13.5098C10.6066 13.5605 10.464 13.6289 10.3507 13.7148C10.2335 13.8008 10.1456 13.9004 10.087 14.0137C10.0284 14.127 9.99914 14.2441 9.99914 14.3652C9.99914 14.4902 10.0226 14.6016 10.0695 14.6992C10.1163 14.7969 10.1984 14.8848 10.3155 14.9629C10.4288 15.041 10.5812 15.1113 10.7726 15.1738C10.9679 15.2363 11.214 15.2969 11.5109 15.3555C11.9015 15.4375 12.2511 15.5332 12.5597 15.6426C12.8683 15.748 13.128 15.875 13.339 16.0234C13.5499 16.1758 13.7101 16.3516 13.8195 16.5508C13.9327 16.75 13.9894 16.9805 13.9894 17.2422C13.9894 17.5234 13.9249 17.7793 13.796 18.0098C13.671 18.2402 13.4952 18.4375 13.2687 18.6016C13.0421 18.7656 12.7706 18.8926 12.4542 18.9824C12.1378 19.0723 11.7921 19.1172 11.4171 19.1172C10.9874 19.1172 10.6046 19.0605 10.2687 18.9473C9.93273 18.8301 9.64953 18.6758 9.41906 18.4844C9.18469 18.2969 9.005 18.0781 8.88 17.8281C8.75891 17.5781 8.69836 17.3184 8.69836 17.0488H9.78234C9.79797 17.2715 9.85656 17.459 9.95813 17.6113C10.0636 17.7637 10.1945 17.8867 10.3507 17.9805C10.503 18.0742 10.673 18.1406 10.8605 18.1797C11.048 18.2188 11.2335 18.2383 11.4171 18.2383C11.7062 18.2383 11.9581 18.2051 12.173 18.1387C12.3878 18.0684 12.5558 17.9727 12.6769 17.8516C12.7511 17.7773 12.8077 17.6953 12.8468 17.6055C12.8859 17.5156 12.9054 17.4199 12.9054 17.3184ZM16.1337 21.4375V12.6602H17.1239L17.1766 13.3516C17.2626 13.2422 17.3563 13.1445 17.4579 13.0586C17.5595 12.9688 17.6688 12.8926 17.786 12.8301C17.9501 12.7363 18.1317 12.666 18.3309 12.6191C18.5341 12.5684 18.7509 12.543 18.9813 12.543C19.3876 12.543 19.747 12.623 20.0595 12.7832C20.372 12.9434 20.6337 13.166 20.8446 13.4512C21.0555 13.7363 21.2157 14.0781 21.3251 14.4766C21.4345 14.8711 21.4891 15.3047 21.4891 15.7773V15.9004C21.4891 16.3535 21.4345 16.7773 21.3251 17.1719C21.2157 17.5625 21.0555 17.9023 20.8446 18.1914C20.6337 18.4805 20.372 18.707 20.0595 18.8711C19.7509 19.0352 19.3973 19.1172 18.9989 19.1172C18.7567 19.1172 18.5302 19.0918 18.3192 19.041C18.1122 18.9902 17.9247 18.918 17.7567 18.8242C17.6552 18.7656 17.5595 18.7012 17.4696 18.6309C17.3798 18.5566 17.2958 18.4766 17.2177 18.3906V21.4375H16.1337ZM20.4052 15.7773C20.4052 15.4688 20.37 15.1758 20.2997 14.8984C20.2333 14.6172 20.1298 14.3691 19.9891 14.1543C19.8446 13.9434 19.663 13.7754 19.4442 13.6504C19.2255 13.5254 18.9637 13.4629 18.6591 13.4629C18.4911 13.4629 18.3348 13.4824 18.1903 13.5215C18.0497 13.5605 17.9227 13.6172 17.8095 13.6914C17.6845 13.7656 17.5731 13.8574 17.4755 13.9668C17.3778 14.0762 17.2919 14.1973 17.2177 14.3301V17.3828C17.2841 17.5 17.3602 17.6094 17.4462 17.7109C17.5321 17.8125 17.6298 17.8984 17.7391 17.9688C17.8641 18.0508 18.0028 18.1152 18.1552 18.1621C18.3114 18.209 18.4833 18.2324 18.6708 18.2324C18.9716 18.2324 19.2313 18.1699 19.4501 18.0449C19.6688 17.916 19.8485 17.7441 19.9891 17.5293C20.1298 17.3145 20.2333 17.0664 20.2997 16.7852C20.37 16.5039 20.4052 16.209 20.4052 15.9004V15.7773Z" fill="#383838"/>
<path d="M9.618 3.255C9.92133 3.255 10.1873 3.31333 10.416 3.43C10.6493 3.54667 10.8313 3.724 10.962 3.962C11.0927 4.2 11.158 4.501 11.158 4.865V7H10.486V4.942C10.486 4.58267 10.3973 4.312 10.22 4.13C10.0473 3.948 9.80233 3.857 9.485 3.857C9.247 3.857 9.03933 3.90367 8.862 3.997C8.68467 4.09033 8.547 4.228 8.449 4.41C8.35567 4.592 8.309 4.81833 8.309 5.089V7H7.637V1.806H8.309V4.291L8.176 4.025C8.29733 3.78233 8.484 3.59333 8.736 3.458C8.988 3.32267 9.282 3.255 9.618 3.255ZM14.1306 7.042C13.7573 7.042 13.426 6.96033 13.1366 6.797C12.8473 6.63367 12.6186 6.40967 12.4506 6.125C12.2826 5.83567 12.1986 5.509 12.1986 5.145C12.1986 4.77633 12.2826 4.44967 12.4506 4.165C12.6186 3.88033 12.8473 3.65867 13.1366 3.5C13.426 3.33667 13.7573 3.255 14.1306 3.255C14.4993 3.255 14.8283 3.33667 15.1176 3.5C15.4116 3.65867 15.6403 3.88033 15.8036 4.165C15.9716 4.445 16.0556 4.77167 16.0556 5.145C16.0556 5.51367 15.9716 5.84033 15.8036 6.125C15.6403 6.40967 15.4116 6.63367 15.1176 6.797C14.8283 6.96033 14.4993 7.042 14.1306 7.042ZM14.1306 6.454C14.3686 6.454 14.581 6.40033 14.7676 6.293C14.959 6.18567 15.1083 6.034 15.2156 5.838C15.323 5.63733 15.3766 5.40633 15.3766 5.145C15.3766 4.879 15.323 4.65033 15.2156 4.459C15.1083 4.263 14.959 4.11133 14.7676 4.004C14.581 3.89667 14.3686 3.843 14.1306 3.843C13.8926 3.843 13.6803 3.89667 13.4936 4.004C13.307 4.11133 13.1576 4.263 13.0456 4.459C12.9336 4.65033 12.8776 4.879 12.8776 5.145C12.8776 5.40633 12.9336 5.63733 13.0456 5.838C13.1576 6.034 13.307 6.18567 13.4936 6.293C13.6803 6.40033 13.8926 6.454 14.1306 6.454ZM17.125 7V1.806H17.797V7H17.125ZM21.5231 7V6.216L21.4881 6.069V4.732C21.4881 4.44733 21.4041 4.228 21.2361 4.074C21.0728 3.91533 20.8254 3.836 20.4941 3.836C20.2748 3.836 20.0601 3.87333 19.8501 3.948C19.6401 4.018 19.4628 4.11367 19.3181 4.235L19.0381 3.731C19.2294 3.577 19.4581 3.46033 19.7241 3.381C19.9948 3.297 20.2771 3.255 20.5711 3.255C21.0798 3.255 21.4718 3.37867 21.7471 3.626C22.0224 3.87333 22.1601 4.25133 22.1601 4.76V7H21.5231ZM20.3051 7.042C20.0298 7.042 19.7871 6.99533 19.5771 6.902C19.3718 6.80867 19.2131 6.68033 19.1011 6.517C18.9891 6.349 18.9331 6.16 18.9331 5.95C18.9331 5.74933 18.9798 5.56733 19.0731 5.404C19.1711 5.24067 19.3274 5.11 19.5421 5.012C19.7614 4.914 20.0554 4.865 20.4241 4.865H21.6001V5.348H20.4521C20.1161 5.348 19.8898 5.404 19.7731 5.516C19.6564 5.628 19.5981 5.76333 19.5981 5.922C19.5981 6.104 19.6704 6.251 19.8151 6.363C19.9598 6.47033 20.1604 6.524 20.4171 6.524C20.6691 6.524 20.8884 6.468 21.0751 6.356C21.2664 6.244 21.4041 6.08067 21.4881 5.866L21.6211 6.328C21.5324 6.54733 21.3761 6.72233 21.1521 6.853C20.9281 6.979 20.6458 7.042 20.3051 7.042Z" fill="#383838"/>
<circle cx="15" cy="26" r="2" fill="#5D5FEF"/>
<path d="M4 5H1V25H3.6H4" stroke="#383838"/>
<path d="M26 25H29L29 5H26.4H26" stroke="#383838"/>
</svg>
